<?xml version="1.0" encoding="utf-8"?>
<!-- Generator: Adobe Illustrator 19.1.1, SVG Export Plug-In . SVG Version: 6.00 Build 0)  -->
<svg version="1.1" xmlns="http://www.w3.org/2000/svg" xmlns:xlink="http://www.w3.org/1999/xlink" x="0px" y="0px"
	 viewBox="0 0 511.5 364.5" style="enable-background:new 0 0 511.5 364.5;" xml:space="preserve">
<style type="text/css">
	.st0{display:none;}
	.st1{fill:#7EC318;}
	.st2{fill:url(#SVGID_1_);}
	.st3{fill:url(#SVGID_2_);}
	.st4{fill:url(#SVGID_3_);}
	.st5{display:inline;fill:url(#SVGID_4_);}
	.st6{display:inline;}
	.st7{fill:#FFFFFF;}
	.st8{fill:url(#Banner_3_2_1_);}
</style>
<g id="Layer_1" class="st0">
	
		<image style="display:inline;overflow:visible;" width="500" height="379" xlink:href="../../../../../../../logo.jpg"  transform="matrix(1 0 0 1 8.8967 22.399)">
	</image>
</g>
<g id="Layer_2">
	<path class="st1" d="M53.9,159.4c0,0,44.7,35.6,43.5,96.6c4.5-0.9,9-1.8,13.6-2.6c3.7-0.7,7.4-1.4,11-2
		c-4-11.6-10.7-25.2-19.4-40.3C90.4,190,73.4,167,53.9,159.4z"/>
	<path class="st1" d="M454.3,160c0,0-44.2,35.1-43.1,96.1c-4.3-0.9-8.7-1.7-13.2-2.5c-4.1-0.7-8.1-1.5-12.1-2.1
		c4-11.5,10.8-25,19.6-40.1C417.7,190.5,434.8,167.6,454.3,160z"/>
	<radialGradient id="SVGID_1_" cx="394.4089" cy="194.6283" r="95.7766" gradientUnits="userSpaceOnUse">
		<stop  offset="0" style="stop-color:#3FC74C"/>
		<stop  offset="1" style="stop-color:#009217"/>
	</radialGradient>
	<path class="st2" d="M470.2,138.6c0,0-84.5,58.3-89.7,112c-9.2-1.4-18.5-2.7-28.2-3.9c-11.6-1.4-22.8-2.6-33.8-3.6
		c4-15.4,7.7-31.3,11.5-47.5c5.6-23.7,11.1-47.4,10.1-47.3c0,0,4.8,82.2,19.7,82C359.9,230.3,377.7,161.5,470.2,138.6z"/>
	
		<radialGradient id="SVGID_2_" cx="294.0842" cy="195.0634" r="94.5303" gradientTransform="matrix(-1 0 0 1 408.46 0)" gradientUnits="userSpaceOnUse">
		<stop  offset="0" style="stop-color:#3FC74C"/>
		<stop  offset="1" style="stop-color:#009217"/>
	</radialGradient>
	<path class="st3" d="M39.7,139.6c0,0,82.2,57.3,87.4,111c9.3-1.8,19.7-2.9,29.9-4.3c11.3-1.6,21.7-2.5,32.1-3.3
		c-3.9-15.2-7.6-30.9-11.4-47c-5.6-23.5-10.9-46.9-10-46.7c0,0-4.8,82.2-19.7,82C148,231.2,132.2,162.4,39.7,139.6z"/>
</g>
<g id="Layer_4">
	<path class="st1" d="M135.2,122.4c0,0-9.3,27.3-9.8,52.3l-15.3-12.1C110.1,162.6,120.6,134,135.2,122.4z"/>
	<path class="st1" d="M372.6,122.1c0,0,9.3,27.3,9.8,52.3l15.3-12.1C397.7,162.3,387.2,133.6,372.6,122.1z"/>
</g>
<g id="Layer_5">
	<path class="st1" d="M202.2,153.7l9.7,11.7c0,0,5.2-34.2,15-46.3C226.9,119.1,204.4,141.9,202.2,153.7z"/>
	<path class="st1" d="M306.6,155.4l-7,10.1c0,0-7.9-32.6-17.7-44.8C281.9,120.7,304.4,143.6,306.6,155.4z"/>
	<circle class="st1" cx="145.2" cy="106.9" r="6.5"/>
	<circle class="st1" cx="257.2" cy="65.9" r="6.5"/>
	<circle class="st1" cx="365.5" cy="106.9" r="6.5"/>
</g>
<g id="Layer_6">
	<radialGradient id="SVGID_3_" cx="258.0217" cy="138.7095" r="139.841" gradientUnits="userSpaceOnUse">
		<stop  offset="0" style="stop-color:#00B51E"/>
		<stop  offset="1" style="stop-color:#005A10"/>
	</radialGradient>
	<path class="st4" d="M162.7,126.3c0,0,14.5,13.6,34,115.6c18.2-1.2,39.9-1.6,60.6-1.5c19.1,0.1,37.1,0.9,54.1,2.1
		c0,0,12.5-74.9,34-116.3c0,0-26.9,7.3-56.9,73.2c0,0-22.7-76.8-31.3-118.2c0,0-5.2,57.5-35.8,116.3
		C221.4,197.6,207.2,152.3,162.7,126.3z"/>
</g>
<g id="Layer_3">
</g>
<g id="Layer_7">
</g>
<g id="Layer_8" class="st0">
	
		<radialGradient id="SVGID_4_" cx="256.1086" cy="273.8052" r="112.0826" gradientTransform="matrix(1 0 0 0.771 0 56.5384)" gradientUnits="userSpaceOnUse">
		<stop  offset="0" style="stop-color:#3FAA4C"/>
		<stop  offset="1" style="stop-color:#007317"/>
	</radialGradient>
	<path class="st5" d="M99.9,256.2c46.7-5.6,101.8-9.6,163.7-9.3c55.7,0.3,105.6,4,148.7,9.1c0,10.8,0,21.6,0,32.4H99.9V256.2z"/>
	<g class="st6">
		<g>
			<path class="st7" d="M119.3,263.5c-3.1,0.3-4.7,0.5-7.8,0.8c0-0.9,0-1.3,0-2.2c7.6-0.9,11.4-1.4,19-2.2c0,1,0,1.5,0,2.4
				c-3.1,0.3-4.7,0.5-7.8,0.8c0,7.6,0,11.5,0,19.1c-1.3,0-2,0-3.4,0C119.3,274.8,119.3,271,119.3,263.5z"/>
			<path class="st7" d="M136.7,259.3c0,3.8,0,5.8,0,9.6c5-0.3,7.5-0.4,12.4-0.7c0-4,0-6.1,0-10.1c1.3-0.1,2-0.2,3.4-0.3
				c0,9.8,0.1,14.7,0.1,24.4c-1.3,0-2,0-3.4,0c0-4.5,0-6.8,0-11.3c-5,0.2-7.5,0.3-12.4,0.6c0,4.3,0,6.5,0,10.8c-1.3,0-2,0-3.3,0
				c0-9,0-13.6-0.1-22.6C134.7,259.5,135.4,259.4,136.7,259.3z"/>
			<path class="st7" d="M171.6,270c-4,0.1-6,0.2-10,0.4c0,3.6,0,5.5,0,9.1c4.5,0,6.7-0.1,11.2-0.1c0,1.1,0,1.7,0,2.8
				c-5.8,0-8.7,0-14.5,0c0-10-0.1-15-0.1-24.9c5.6-0.5,8.3-0.7,13.9-1.1c0,1.1,0,1.7,0,2.8c-4.2,0.3-6.3,0.4-10.6,0.7
				c0,3.2,0,4.8,0,8c4-0.2,6-0.3,10-0.4C171.6,268.4,171.6,268.9,171.6,270z"/>
			<path class="st7" d="M185.1,255.3c1.3-0.1,2-0.1,3.3-0.2c0,5.2,0,7.8,0,13c0,0,0.1,0,0.1,0c0.7-1.1,1.4-2.1,2-3
				c3.1-4.2,4.7-6.3,7.8-10.6c1.7-0.1,2.5-0.1,4.1-0.2c-3.7,4.9-5.6,7.3-9.3,12.1c4,6.2,6.1,9.3,10.1,15.7c-1.6,0-2.4,0-3.9,0
				c-3.4-5.4-5.1-8.1-8.5-13.3c-1,1.2-1.5,1.8-2.4,3c0,4.1,0,6.2,0,10.3c-1.3,0-2,0-3.3,0C185.2,271.4,185.2,266.1,185.1,255.3z"/>
			<path class="st7" d="M209.2,254.1c0,9.4,0.1,18.7,0.1,28.1c-1.3,0-2,0-3.3,0c0-11.2-0.1-16.7-0.1-27.9
				C207.2,254.2,207.8,254.2,209.2,254.1z"/>
			<path class="st7" d="M215.1,282.2c0-9.4,0-18.8-0.1-28.3c1.5-0.1,2.2-0.1,3.6-0.1c3.3,5.6,5,8.5,8.3,14.2
				c1.9,3.3,3.4,6.3,4.6,9.3c0,0,0,0,0.1,0c-0.3-3.8-0.4-7.3-0.4-11.8c0-4.8,0-7.2,0-12c1.3,0,1.9,0,3.1-0.1c0,9.6,0,19.2,0,28.8
				c-1.3,0-2,0-3.4,0c-3.3-5.8-4.9-8.7-8.2-14.5c-1.8-3.1-3.5-6.4-4.8-9.4c0,0-0.1,0-0.1,0c0.2,3.6,0.3,7,0.3,11.7
				c0,4.8,0,7.3,0,12.1C216.9,282.1,216.3,282.1,215.1,282.2z"/>
			<path class="st7" d="M259.8,280.8c-1.5,0.6-4.4,1.6-7.9,1.6c-3.9,0-7.1-1.1-9.6-3.8c-2.2-2.4-3.6-6.3-3.6-10.7
				c0-8.6,5.3-15,13.9-15c3,0,5.3,0.7,6.4,1.3c-0.3,1.2-0.5,1.8-0.8,3.1c-1.4-0.7-3.1-1.3-5.7-1.2c-6.3,0-10.4,4.5-10.4,11.7
				c0,7.3,3.9,11.7,9.9,11.7c2.2,0,3.7-0.3,4.4-0.8c0-3.5,0-5.2,0-8.7c-2.1,0-3.1,0-5.2,0c0-1.2,0-1.8,0-3c3.4,0,5.1,0,8.5,0
				C259.8,272.5,259.8,275.3,259.8,280.8z"/>
			<path class="st7" d="M295,267.7c0,9.8-5.4,15-12,15c-6.8,0-11.6-5.9-11.6-14.7c0-9.2,5.1-15.1,12-15
				C290.5,253.1,295,259.2,295,267.7z M275,267.9c0,6.2,3,11.7,8.2,11.7c5.3,0,8.3-5.3,8.3-11.8c0-5.7-2.7-11.7-8.2-11.8
				C277.8,255.9,275,261.5,275,267.9z"/>
			<path class="st7" d="M299.3,253.9c5.6,0.2,8.3,0.3,13.9,0.6c0,1.2,0,1.8,0,3c-4.2-0.2-6.3-0.3-10.6-0.4c0,3.7,0,5.6,0,9.4
				c3.9,0.1,5.8,0.1,9.7,0.2c0,1.2,0,1.8,0,3c-3.9-0.1-5.8-0.1-9.7-0.2c0,5.1,0,7.6,0,12.7c-1.3,0-2,0-3.3,0
				C299.3,272.7,299.3,263.3,299.3,253.9z"/>
			<path class="st7" d="M329.4,258.3c-3.1-0.2-4.7-0.3-7.8-0.4c0-1.2,0-1.8,0-3c7.6,0.4,11.4,0.7,19.1,1.2c0,1.1,0,1.7,0,2.9
				c-3.1-0.2-4.7-0.3-7.9-0.5c0,9.5-0.1,14.2-0.1,23.7c-1.3,0-2,0-3.4,0C329.3,272.6,329.3,267.8,329.4,258.3z"/>
			<path class="st7" d="M346.8,256.6c0,6.1,0,9.1-0.1,15.2c0,5.7,2.5,8.2,6,8.2c3.8,0,6.3-2.4,6.3-7.8c0-5.8,0-8.8,0.1-14.6
				c1.3,0.1,2,0.2,3.4,0.3c0,5.7,0,8.5-0.1,14.2c0,7.5-4.2,10.6-9.8,10.6c-5.3,0-9.2-3-9.2-11.1c0-6.1,0-9.1,0.1-15.2
				C344.8,256.4,345.5,256.5,346.8,256.6z"/>
			<path class="st7" d="M368.2,258.7c1.7-0.2,4.1-0.1,6.4,0.1c3.5,0.4,5.8,1.2,7.4,2.6c1.3,1.1,2,2.7,2,4.4c0,2.9-2.1,4.8-4.9,5.4
				c0,0,0,0.1,0,0.1c2,0.7,3.2,2.4,3.8,4.7c0.8,3.1,1.4,5.3,2,6.1c-1.4,0-2.1,0-3.4,0c-0.4-0.6-1-2.6-1.7-5.4
				c-0.8-3.1-2.1-4.4-5.1-4.6c-1.3-0.1-1.9-0.1-3.1-0.1c0,4.1,0,6.1,0,10.2c-1.3,0-2,0-3.3,0C368.1,272.8,368.1,268.1,368.2,258.7z
				 M371.4,269.7c1.4,0.1,2,0.1,3.4,0.2c3.5,0.2,5.8-1.4,5.8-4c0-2.9-2.4-4.4-5.9-4.8c-1.6-0.2-2.7-0.1-3.3,0
				C371.5,264.6,371.5,266.3,371.4,269.7z"/>
			<path class="st7" d="M388.7,260.5c5.5,0.6,8.3,0.9,13.8,1.6c0,0.9,0,1.3,0,2.2c-4.2-0.5-6.3-0.7-10.5-1.1c0,2.8,0,4.3,0,7.1
				c3.9,0.3,5.8,0.4,9.7,0.7c0,0.9,0,1.3,0,2.2c-3.9-0.2-5.8-0.3-9.7-0.5c0,3.9,0,5.8,0,9.7c-1.3,0-2,0-3.3,0
				C388.6,273.6,388.6,269.2,388.7,260.5z"/>
		</g>
	</g>
</g>
<g id="Layer_9">
	
		<radialGradient id="Banner_3_2_1_" cx="258.5946" cy="262.7495" r="117.462" gradientTransform="matrix(2.715746e-009 -1 2.0679 5.615823e-009 -284.7384 521.3441)" gradientUnits="userSpaceOnUse">
		<stop  offset="0" style="stop-color:#00B51E"/>
		<stop  offset="1" style="stop-color:#005A10"/>
	</radialGradient>
	<path id="Banner_3_2" class="st8" d="M419,323.6c0,0-66.5-25.3-166.1-25.3S87.7,323.7,87.7,323.7c-0.3,1.9-13.9-55.6-14.2-56.1
		c58.8-13.9,118.9-20.9,179.3-20.7c99.6,0,181.3,20.6,181.3,20.6L419,323.6z"/>
</g>
<g id="Layer_10">
	<g>
		<g>
			<path class="st7" d="M106.8,274.7c0.5,2.2,0.7,3.3,1.2,5.5c-2.4,0.5-3.6,0.8-6,1.4c2,8.8,3,13.2,5.1,22c-3.9,0.9-5.9,1.4-9.8,2.3
				c-2.2-8.7-3.2-13.1-5.4-21.9c-2.4,0.6-3.6,0.9-6,1.5c-0.6-2.2-0.8-3.3-1.4-5.5C93.4,277.7,97.9,276.6,106.8,274.7z"/>
			<path class="st7" d="M132.7,269.4c1.7,9.3,3.3,18.5,5,27.8c-3.9,0.7-5.9,1.1-9.8,1.8c-0.9-4.6-1.4-7-2.3-11.6
				c-1.2,0.2-1.8,0.4-3,0.6c0.9,4.6,1.4,7,2.3,11.6c-3.9,0.8-5.9,1.2-9.8,2c-2-9.2-4-18.4-6-27.5c4.1-0.9,6.1-1.3,10.2-2.2
				c0.8,4,1.2,5.9,2,9.9c1.2-0.2,1.8-0.4,3-0.6c-0.8-4-1.2-5.9-1.9-9.9C126.5,270.6,128.5,270.2,132.7,269.4z"/>
			<path class="st7" d="M136.8,268.7c6.9-1.2,10.3-1.8,17.2-2.8c0.3,2.2,0.5,3.4,0.8,5.6c-2.7,0.4-4.1,0.6-6.8,1.1
				c0.3,2.1,0.5,3.2,0.8,5.3c2.5-0.4,3.8-0.6,6.3-1c0.3,2.1,0.5,3.2,0.8,5.3c-2.5,0.4-3.8,0.6-6.3,1c0.4,2.5,0.6,3.7,1,6.1
				c2.9-0.5,4.4-0.7,7.3-1.1c0.3,2.2,0.5,3.4,0.8,5.6c-6.9,1-10.3,1.6-17.1,2.7C140,287.2,138.4,278,136.8,268.7z"/>
			<path class="st7" d="M191.1,261.4c-1.9,5.3-2.8,8-4.7,13.3c3.2,5.9,4.7,8.9,7.8,14.9c-4.1,0.4-6.2,0.6-10.3,1
				c-2.1-4.7-3.2-7-5.4-11.6c0.5,4.8,0.8,7.2,1.4,12.1c-4,0.4-5.9,0.7-9.9,1.2c-1.2-9.3-2.4-18.7-3.6-28c4.1-0.5,6.2-0.8,10.3-1.3
				c0.5,4.4,0.7,6.6,1.2,10.9c1.3-4.6,2-6.9,3.4-11.4C185.3,262,187.2,261.8,191.1,261.4z"/>
			<path class="st7" d="M203.8,260.3c0.7,9.4,1.4,18.8,2.1,28.3c-4,0.3-6,0.4-9.9,0.8c-0.8-9.4-1.7-18.8-2.5-28.2
				C197.6,260.8,199.7,260.7,203.8,260.3z"/>
			<path class="st7" d="M231.2,258.9c0.3,9.5,0.6,18.9,0.9,28.4c-3.5,0.1-5.2,0.2-8.7,0.3c-2.3-5.1-3.5-7.6-5.9-12.6
				c0.3,5.2,0.4,7.7,0.7,12.9c-3.3,0.2-5,0.3-8.3,0.5c-0.6-9.4-1.3-18.9-1.9-28.3c3.5-0.2,5.2-0.3,8.7-0.5c2.6,5,3.9,7.5,6.4,12.5
				c-0.2-5.1-0.3-7.7-0.6-12.8C225.9,259,227.7,259,231.2,258.9z"/>
			<path class="st7" d="M259.1,268.9c-4.1,0-6.1,0-10.2,0c0-1,0-1.5,0-2.6c0-1.6-0.1-2.6-0.3-3.1c-0.2-0.4-0.7-0.6-1.4-0.6
				c-0.6,0-1.1,0.2-1.3,0.5c-0.2,0.4-0.3,1.3-0.3,2.7c0.1,5.5,0.1,8.2,0.2,13.6c0,1.3,0.1,2.1,0.4,2.5s0.7,0.6,1.3,0.6
				c0.7,0,1.2-0.2,1.5-0.7c0.3-0.5,0.4-1.3,0.4-2.7c0-1.3,0-2,0-3.4c-0.8,0-1.2,0-2,0c0-1.7,0-2.6,0-4.3c4.8,0,7.2-0.1,11.9,0
				c-0.1,6.1-0.1,9.2-0.1,15.3c-2.5,0-3.8,0-6.3,0c-0.4-0.8-0.6-1.2-0.9-2c-0.7,0.9-1.5,1.5-2.6,2c-1,0.4-2.2,0.7-3.6,0.7
				c-1.7,0-3.2-0.3-4.7-0.8c-1.5-0.6-2.6-1.3-3.4-2.2c-0.8-0.9-1.3-1.8-1.5-2.8c-0.2-1-0.4-2.4-0.4-4.4c-0.1-3.4-0.1-5.1-0.2-8.4
				c-0.1-2.7,0.1-4.7,0.5-5.9c0.4-1.2,1.5-2.4,3.4-3.5c1.9-1.1,4.4-1.6,7.5-1.7c3,0,5.6,0.4,7.6,1.3c2,0.9,3.3,2,3.9,3.2
				c0.6,1.2,0.9,3,0.9,5.3C259.1,268.2,259.1,268.5,259.1,268.9z"/>
			<path class="st7" d="M294.8,276.4c-0.2,2.9-0.4,4.9-0.7,6.1c-0.3,1.2-0.9,2.2-1.9,3.2c-1,0.9-2.3,1.6-4,2
				c-1.7,0.4-3.6,0.6-5.7,0.5c-2-0.1-3.9-0.4-5.5-1c-1.6-0.6-2.9-1.3-3.9-2.4c-1-1-1.5-2.1-1.7-3.3c-0.2-1.2-0.2-3.2-0.1-6.2
				c0.1-1.9,0.1-2.9,0.1-4.9c0.1-2.9,0.2-4.9,0.4-6.1c0.2-1.2,0.8-2.3,1.9-3.2c1-1,2.4-1.7,4.1-2.1c1.7-0.5,3.7-0.7,6-0.6
				c2.1,0.1,4.1,0.4,5.7,1c1.7,0.6,3,1.4,4,2.5c1,1.1,1.5,2.2,1.6,3.4s0.1,3.2-0.1,6.2C295,273.5,294.9,274.4,294.8,276.4z
				 M285.1,266.5c0.1-1.3,0-2.2-0.2-2.6c-0.2-0.4-0.6-0.6-1.2-0.6c-0.5,0-1,0.1-1.3,0.4c-0.3,0.3-0.5,1.2-0.5,2.6
				c-0.2,5.3-0.3,8-0.6,13.3c-0.1,1.7,0,2.7,0.1,3.1c0.2,0.4,0.6,0.6,1.2,0.6c0.7,0,1.1-0.2,1.3-0.6c0.2-0.4,0.4-1.5,0.4-3.2
				C284.7,274.3,284.9,271.7,285.1,266.5z"/>
			<path class="st7" d="M299.7,260c7,0.5,10.5,0.7,17.6,1.4c-0.2,2.3-0.3,3.4-0.5,5.7c-2.9-0.3-4.3-0.4-7.1-0.6
				c-0.2,2.2-0.3,3.2-0.5,5.4c2.5,0.2,3.8,0.3,6.3,0.6c-0.2,2.2-0.3,3.2-0.5,5.4c-2.5-0.2-3.7-0.3-6.2-0.5c-0.4,4.8-0.6,7.2-1,11.9
				c-4-0.3-6-0.5-9.9-0.8C298.4,278.9,299.1,269.4,299.7,260z"/>
			<path class="st7" d="M349.5,265.1c-0.3,2.3-0.5,3.4-0.8,5.7c-2.4-0.3-3.6-0.5-6.1-0.8c-1.2,9.1-1.8,13.6-3,22.7
				c-4-0.5-5.9-0.8-9.9-1.2c1.1-9.1,1.6-13.6,2.7-22.7c-2.4-0.3-3.6-0.4-6.1-0.7c0.2-2.3,0.4-3.4,0.6-5.7
				C335.9,263.3,340.5,263.9,349.5,265.1z"/>
			<path class="st7" d="M375.2,269.3c-1.4,7.5-2.1,11.3-3.4,18.8c-0.4,2.1-0.8,3.6-1.1,4.4c-0.3,0.8-1.1,1.6-2.1,2.4
				c-1.1,0.7-2.4,1.2-4,1.4c-1.6,0.2-3.4,0.1-5.4-0.2c-2.3-0.4-4.2-1-5.9-1.8c-1.6-0.8-2.8-1.7-3.6-2.8c-0.7-1-1.1-2-1.1-3.1
				c0-1,0.2-3.1,0.7-6.3c1-6.7,1.5-10,2.4-16.7c4.1,0.6,6.2,0.9,10.3,1.6c-1.4,8.5-2,12.7-3.4,21.2c-0.2,1.2-0.2,2-0.1,2.4
				c0.1,0.4,0.5,0.6,1,0.7c0.6,0.1,1.1,0,1.3-0.4c0.2-0.3,0.5-1.2,0.7-2.6c1.4-8.3,2.1-12.5,3.4-20.8
				C369.1,268.2,371.1,268.5,375.2,269.3z"/>
			<path class="st7" d="M379.2,270c2.9,0.5,4.4,0.8,7.3,1.4c4.8,1,8.1,1.8,9.7,2.4c1.7,0.6,2.9,1.6,3.7,2.9c0.8,1.3,1,3.2,0.4,5.6
				c-0.5,2.2-1.2,3.6-2.1,4.1c-0.9,0.6-2.5,0.7-4.7,0.4c1.9,0.8,3.1,1.6,3.7,2.3c0.5,0.7,0.8,1.4,0.9,1.9c0.1,0.5-0.2,1.9-0.7,4.2
				c-0.7,3-1,4.4-1.6,7.4c-3.6-0.8-5.5-1.2-9.1-2c0.8-3.7,1.2-5.6,1.9-9.3c0.3-1.5,0.3-2.5,0.1-2.9c-0.3-0.4-1.1-0.8-2.4-1.1
				c-1,5.1-1.5,7.6-2.6,12.7c-3.9-0.8-5.9-1.2-9.8-1.9C375.7,288.8,377.4,279.4,379.2,270z M388.5,276.8c-0.5,2.5-0.8,3.7-1.3,6.2
				c1.1,0.2,1.9,0.3,2.4,0.1c0.5-0.1,0.9-0.8,1.1-2.1c0.1-0.6,0.2-0.9,0.3-1.5c0.2-0.9,0.1-1.5-0.3-1.9
				C390.4,277.3,389.6,277,388.5,276.8z"/>
			<path class="st7" d="M406,275.5c6.9,1.6,10.4,2.4,17.2,4.2c-0.6,2.2-0.9,3.3-1.4,5.6c-2.8-0.7-4.2-1.1-7-1.8
				c-0.5,2.1-0.8,3.2-1.3,5.3c2.5,0.6,3.7,0.9,6.2,1.5c-0.5,2.1-0.8,3.2-1.4,5.3c-2.4-0.6-3.7-0.9-6.1-1.5c-1.1,4.7-1.7,7-2.9,11.7
				c-3.9-1-5.8-1.4-9.8-2.3C401.7,294.2,403.9,284.9,406,275.5z"/>
		</g>
	</g>
</g>
</svg>
