<?xml version="1.0" encoding="utf-8"?>
<!-- Generator: Adobe Illustrator 19.1.1, SVG Export Plug-In . SVG Version: 6.00 Build 0)  -->
<svg version="1.1" id="Layer_1" xmlns="http://www.w3.org/2000/svg" xmlns:xlink="http://www.w3.org/1999/xlink" x="0px" y="0px"
	 viewBox="-108 276 395 242" style="enable-background:new -108 276 395 242;" xml:space="preserve">
<style type="text/css">
	.st0{fill:#7EC318;}
	.st1{fill:url(#SVGID_1_);}
	.st2{fill:url(#SVGID_2_);}
	.st3{fill:url(#SVGID_3_);}
	.st4{fill:url(#Banner_3_2_1_);}
	.st5{fill:#FFFFFF;}
</style>
<path class="st0" d="M-94.6,368.4c0,0,41.3,33,40.2,89.3c4.1-0.8,8.3-1.7,12.6-2.4c3.4-0.6,6.8-1.3,10.2-1.8
	c-3.7-10.7-9.9-23.3-18-37.3C-60.9,396.7-76.6,375.5-94.6,368.4z"/>
<path class="st0" d="M275.5,369c0,0-40.9,32.5-39.8,88.9c-4-0.8-8.1-1.6-12.2-2.3c-3.8-0.7-7.5-1.4-11.2-2c3.7-10.7,10-23.2,18.1-37
	C241.7,397.2,257.5,376,275.5,369z"/>
<radialGradient id="SVGID_1_" cx="219.2303" cy="401.0103" r="87.7862" gradientUnits="userSpaceOnUse">
	<stop  offset="0" style="stop-color:#3FC74C"/>
	<stop  offset="1" style="stop-color:#009217"/>
</radialGradient>
<path class="st1" d="M288.4,349.2c0,0-76.3,53.9-81,103.5c-8.5-1.3-17.1-2.5-26-3.6c-10.7-1.3-21.1-2.4-31.3-3.4
	c3.7-14.3,7.1-28.9,10.6-43.9c5.2-21.9,10.2-43.9,9.4-43.7c0,0,4.5,76,18.2,75.8C188.3,434,202.9,370.3,288.4,349.2z"/>
<radialGradient id="SVGID_2_" cx="109.3863" cy="401.4126" r="87.3878" gradientTransform="matrix(-1 0 0 1 70.6667 0)" gradientUnits="userSpaceOnUse">
	<stop  offset="0" style="stop-color:#3FC74C"/>
	<stop  offset="1" style="stop-color:#009217"/>
</radialGradient>
<path class="st2" d="M-107.7,350.1c0,0,76,53,80.8,102.6c8.6-1.6,18.2-2.7,27.6-4c10.5-1.5,20.1-2.3,29.7-3.1
	c-3.6-14.1-7-28.6-10.5-43.4c-5.1-21.7-10.1-43.3-9.2-43.2c0,0-4.5,76-18.2,75.8C-7.6,434.8-22.2,371.2-107.7,350.1z"/>
<path class="st0" d="M-19.4,334.2c0,0-8.6,25.3-9.1,48.4l-14.1-11.2C-42.7,371.4-33,344.9-19.4,334.2z"/>
<path class="st0" d="M200,333.9c0,0,8.6,25.3,9.1,48.4l14.1-11.2C223.2,371.1,213.5,344.6,200,333.9z"/>
<path class="st0" d="M42.5,363.2l8.9,10.8c0,0,4.8-31.6,13.9-42.8C65.3,331.2,44.5,352.3,42.5,363.2z"/>
<path class="st0" d="M138.9,364.7l-8.9,10.8c0,0-4.8-31.6-13.9-42.8C116.1,332.7,136.9,353.8,138.9,364.7z"/>
<circle class="st0" cx="-10.3" cy="319.9" r="6"/>
<circle class="st0" cx="93.3" cy="282" r="6"/>
<circle class="st0" cx="193.4" cy="319.9" r="6"/>
<radialGradient id="SVGID_3_" cx="94.0727" cy="349.3167" r="129.2749" gradientUnits="userSpaceOnUse">
	<stop  offset="0" style="stop-color:#00B51E"/>
	<stop  offset="1" style="stop-color:#005A10"/>
</radialGradient>
<path class="st3" d="M5.9,337.8c0,0,15.3,12.9,33.3,107.2c16.9-1.1,34.9-1.8,54.1-1.7c17.6,0.1,34.3,0.8,50,2
	c0,0,11.6-69.3,31.5-107.5c0,0-24.9,6.8-52.6,67.6c0,0-21-71-28.9-109.2c0,0-4.8,53.2-33.1,107.5C60.2,403.7,47.1,361.8,5.9,337.8z"
	/>
<radialGradient id="Banner_3_2_1_" cx="94.6889" cy="463.0695" r="107.7389" gradientTransform="matrix(2.715745e-009 -1 2.0679 5.615822e-009 -862.881 557.7584)" gradientUnits="userSpaceOnUse">
	<stop  offset="0" style="stop-color:#00B51E"/>
	<stop  offset="1" style="stop-color:#005A10"/>
</radialGradient>
<path id="Banner_3_2" class="st4" d="M232.8,518c0,0-50.4-21.7-142.4-21.7S-57.1,518-57.1,518c-0.3,1.7-18-49.5-18.3-50
	c54.3-12.9,110-19.3,165.8-19.2c92.1,0,165.8,19.2,165.8,19.2C248,482.8,238.3,502.1,232.8,518z"/>
<g>
	<g>
		<path class="st5" d="M-34,499.3c-1.8,0.4-2.6,0.6-4.4,1.1c-1.9-7.9-2.9-11.9-4.8-19.8c-2.5,0.6-3.8,0.9-6.2,1.6
			c-0.4-1.4-0.6-2.2-0.9-3.6c6.9-1.8,10.3-2.6,17.2-4.1c0.3,1.5,0.5,2.2,0.8,3.6c-2.5,0.6-3.8,0.9-6.3,1.4
			C-36.8,487.4-35.9,491.4-34,499.3z"/>
		<path class="st5" d="M-8.5,494c-1.7,0.3-2.5,0.5-4.1,0.8c-0.8-4.1-1.2-6.2-2-10.3c-3.6,0.7-5.3,1.1-8.9,1.8
			c0.9,4.1,1.3,6.1,2.2,10.2c-1.6,0.3-2.5,0.5-4.1,0.9c-2.1-9.4-3.1-14.1-5.2-23.5c1.7-0.4,2.6-0.6,4.3-0.9c0.8,3.9,1.2,5.8,2,9.7
			c3.6-0.8,5.4-1.1,8.9-1.8c-0.8-3.9-1.1-5.8-1.9-9.7c1.7-0.3,2.6-0.5,4.3-0.8C-11.2,479.7-10.3,484.5-8.5,494z"/>
		<path class="st5" d="M11.4,490.6c-6,0.9-9,1.4-14.9,2.4c-1.7-9.5-2.5-14.3-4.2-23.8c6.2-1.1,9.2-1.6,15.4-2.5
			c0.2,1.4,0.3,2.1,0.5,3.6c-4.4,0.7-6.6,1-11,1.8c0.4,2.6,0.7,3.9,1.1,6.5c3.5-0.6,5.3-0.9,8.8-1.4c0.2,1.4,0.3,2.1,0.5,3.5
			c-3.5,0.5-5.2,0.8-8.7,1.4c0.4,2.7,0.7,4,1.1,6.7c4.3-0.7,6.5-1.1,10.9-1.7C11.1,488.4,11.2,489.1,11.4,490.6z"/>
		<path class="st5" d="M41.8,487c-1.9,0.2-2.8,0.3-4.7,0.4c-2.4-4.7-3.7-7.1-6.2-11.7c-1.6,2.7-2.3,4-3.8,6.7
			c0.3,2.4,0.4,3.6,0.7,6.1c-1.7,0.2-2.5,0.3-4.2,0.5c-1.2-9.6-1.8-14.4-3-24c1.7-0.2,2.6-0.3,4.3-0.5c0.6,5,0.9,7.6,1.5,12.6
			c0.4-0.9,0.8-1.6,1-1.9c2.6-4.7,4-7,6.7-11.7c1.8-0.2,2.6-0.3,4.4-0.4c-2,3.4-3,5.1-4.9,8.5C37,477.7,38.6,480.8,41.8,487z"/>
		<path class="st5" d="M49.1,486.4c-1.7,0.1-2.5,0.2-4.2,0.3c-0.8-9.6-1.2-14.5-2.1-24.1c1.7-0.2,2.6-0.2,4.4-0.4
			C47.9,471.9,48.3,476.7,49.1,486.4z"/>
		<path class="st5" d="M71.7,485.1c-1.6,0.1-2.4,0.1-4.1,0.2c-3.8-6-5.7-9-9.7-15c-0.2-0.2-0.4-0.6-0.8-1.1
			c-0.2-0.2-0.4-0.6-0.7-1.1c0.4,7.1,0.7,10.6,1.1,17.7c-1.3,0.1-2,0.1-3.4,0.2c-0.7-9.7-1-14.5-1.7-24.2c1.9-0.1,2.9-0.2,4.8-0.3
			c3.7,5.5,5.6,8.2,9.1,13.8c0.1,0.1,0.6,1,1.6,2.5c-0.3-6.8-0.4-10.1-0.7-16.9c1.4-0.1,2.1-0.1,3.4-0.1
			C71.1,470.5,71.3,475.4,71.7,485.1z"/>
		<path class="st5" d="M94.4,472.3c0,5,0,7.5,0,12.4c-0.7,0-1.1,0-1.9,0c-0.5-1.3-0.8-2-1.3-3.3c-1.4,2.4-3.4,3.7-6.3,3.7
			c-3.2,0-5.5-1.2-7.2-3.6c-1.6-2.5-2.5-5.4-2.6-8.7c-0.1-3.5,0.7-6.5,2.4-9c1.7-2.5,4.3-3.7,7.5-3.8c2.4,0,4.4,0.7,6,2.1
			c1.6,1.4,2.6,3.2,3,5.3c-1.5,0.3-2.2,0.4-3.7,0.7c-0.7-3-2.4-4.4-5.1-4.4c-1.7,0-3.1,0.7-4.1,2.2c-1,1.4-1.5,3.6-1.5,6.5
			c0.1,6.1,2.1,9.1,5.7,9.1c1.4,0,2.6-0.5,3.6-1.6c0.9-1,1.4-2.4,1.4-4.1c-1.9,0-2.9,0-4.9,0c0-1.4,0-2.1,0-3.5
			C89.1,472.3,90.8,472.2,94.4,472.3z"/>
		<path class="st5" d="M116.3,485.6c-3.1-0.1-5.4-1.4-7.1-3.9c-1.7-2.5-2.4-5.5-2.4-9c0.1-3.5,1.1-6.5,3.1-8.8
			c2-2.3,4.5-3.4,7.6-3.3c3.1,0.1,5.6,1.5,7.3,3.9c1.7,2.5,2.4,5.5,2.2,9.1c-0.2,3.8-1.3,6.7-3.3,8.9
			C121.8,484.7,119.3,485.7,116.3,485.6z M116.5,482c1.5,0.1,2.8-0.5,3.9-1.8c1.1-1.3,1.8-3.6,2-7c0.1-2.8-0.2-5-1-6.6
			c-0.8-1.6-2.2-2.5-4-2.6c-3.7-0.2-5.7,2.8-5.9,8.9c-0.1,2.9,0.3,5.2,1.2,6.7C113.5,481.2,114.8,482,116.5,482z"/>
		<path class="st5" d="M134.4,486.3c-1.7-0.1-2.6-0.2-4.3-0.3c0.7-9.7,1-14.6,1.7-24.3c6.1,0.4,9.2,0.7,15.3,1.2
			c-0.1,1.5-0.2,2.3-0.4,3.8c-4.3-0.4-6.4-0.6-10.7-0.9c-0.2,2.7-0.3,4-0.5,6.6c3.3,0.3,5,0.4,8.3,0.7c-0.1,1.5-0.2,2.2-0.3,3.6
			c-3.3-0.3-5-0.4-8.3-0.7C134.9,480.1,134.8,482.2,134.4,486.3z"/>
		<path class="st5" d="M164.5,489.4c-1.8-0.2-2.7-0.3-4.5-0.6c1-8.2,1.5-12.3,2.5-20.5c-2.5-0.3-3.8-0.5-6.4-0.7
			c0.2-1.5,0.3-2.2,0.4-3.7c7,0.8,10.5,1.2,17.5,2.2c-0.2,1.5-0.3,2.2-0.5,3.7c-2.5-0.4-3.8-0.5-6.4-0.9
			C166.1,477.1,165.6,481.2,164.5,489.4z"/>
		<path class="st5" d="M193.2,469.1c-1.1,6.2-1.6,9.3-2.7,15.5c-0.4,2.1-0.9,3.7-1.5,4.7c-0.7,1.1-1.7,1.9-3.1,2.5
			c-1.4,0.6-3.1,0.7-4.9,0.4c-1.9-0.3-3.4-0.9-4.5-1.8c-1.1-0.9-1.8-2-2.2-3.3c-0.3-1.3-0.4-2.9-0.1-4.8c0.9-6.3,1.4-9.5,2.3-15.9
			c1.8,0.3,2.6,0.4,4.4,0.7c-1,6.2-1.4,9.3-2.4,15.5c-0.3,2.1-0.1,3.6,0.6,4.4c0.7,0.8,1.7,1.3,2.8,1.5c1.3,0.2,2.4,0,3.3-0.6
			c0.9-0.6,1.5-1.9,1.9-3.9c1.1-6.2,1.6-9.3,2.7-15.5C191.1,468.7,191.8,468.9,193.2,469.1z"/>
		<path class="st5" d="M211.4,497.7c-1.7-0.4-2.6-0.6-4.3-0.9c-0.6-4.2-0.9-6.4-1.5-10.6c-2.4-0.5-3.5-0.7-5.9-1.2
			c-0.8,4-1.2,5.9-1.9,9.9c-1.6-0.3-2.5-0.5-4.1-0.8c1.8-9.6,2.7-14.4,4.5-24.1c4.1,0.8,6.2,1.2,10.4,2c2.9,0.6,4.8,1.7,5.9,3.3
			c1.1,1.6,1.4,3.4,0.9,5.5c-0.7,3.1-2.5,4.9-5.6,5.4C210.4,490.8,210.7,493.1,211.4,497.7z M200.3,481.5c2.1,0.4,3.1,0.6,5.2,1
			c1.5,0.3,2.7,0.2,3.6-0.3c0.9-0.5,1.4-1.3,1.7-2.5c0.2-1.1,0-2-0.6-2.8c-0.6-0.8-1.6-1.3-2.9-1.6c-2.3-0.5-3.4-0.7-5.7-1.1
			C201.2,477.2,200.9,478.6,200.3,481.5z"/>
		<path class="st5" d="M219.8,499.6c-1.7-0.4-2.5-0.6-4.2-1c2.2-9.6,3.3-14.3,5.5-23.9c6,1.4,9,2.1,15,3.6c-0.4,1.5-0.6,2.2-0.9,3.7
			c-4.2-1.1-6.3-1.6-10.5-2.6c-0.6,2.6-0.9,3.9-1.5,6.5c3.3,0.8,4.9,1.2,8.2,2c-0.4,1.4-0.5,2.1-0.9,3.6c-3.2-0.8-4.9-1.2-8.1-2
			C221.2,493.6,220.8,495.6,219.8,499.6z"/>
	</g>
</g>
</svg>
