<?xml version="1.0" encoding="utf-8"?>
<!-- Generator: Adobe Illustrator 19.1.1, SVG Export Plug-In . SVG Version: 6.00 Build 0)  -->
<svg version="1.1" xmlns="http://www.w3.org/2000/svg" xmlns:xlink="http://www.w3.org/1999/xlink" x="0px" y="0px"
	 viewBox="0 0 502.7 309.3" style="enable-background:new 0 0 502.7 309.3;" xml:space="preserve">
<style type="text/css">
	.st0{display:none;}
	.st1{fill:#7EC318;}
	.st2{fill:url(#SVGID_1_);}
	.st3{fill:url(#SVGID_2_);}
	.st4{fill:url(#SVGID_3_);}
	.st5{display:inline;fill:url(#SVGID_4_);}
	.st6{display:inline;}
	.st7{fill:#FFFFFF;}
	.st8{fill:url(#Banner_3_2_1_);}
</style>
<g id="Layer_1" class="st0">
	
		<image style="display:inline;overflow:visible;" width="500" height="379" xlink:href="../../../../../../../logo.jpg"  transform="matrix(1 0 0 1 5.6667 16.6667)">
	</image>
</g>
<g id="Layer_2">
	<path class="st1" d="M16.7,118c0,0,52,41.5,50.6,112.4c5.2-1.1,10.5-2.1,15.8-3.1c4.3-0.8,8.6-1.6,12.8-2.3
		c-4.6-13.5-12.5-29.3-22.6-46.9C59.2,153.6,39.4,126.8,16.7,118z"/>
	<path class="st1" d="M482.5,118.7c0,0-51.4,40.9-50.1,111.8c-5.1-1-10.2-2-15.4-2.9c-4.7-0.9-9.5-1.7-14.1-2.5
		c4.7-13.4,12.6-29.1,22.8-46.6C439.9,154.1,459.8,127.5,482.5,118.7z"/>
	<radialGradient id="SVGID_1_" cx="412.784" cy="158.9712" r="111.4116" gradientUnits="userSpaceOnUse">
		<stop  offset="0" style="stop-color:#3FC74C"/>
		<stop  offset="1" style="stop-color:#009217"/>
	</radialGradient>
	<path class="st2" d="M501,93.8c0,0-98.3,67.9-104.3,130.3c-10.6-1.6-21.6-3.1-32.8-4.5c-13.4-1.7-26.6-3.1-39.3-4.2
		c4.6-17.9,8.9-36.4,13.4-55.3c6.6-27.6,12.9-55.2,11.8-55c0,0,5.6,95.6,22.9,95.4C372.6,200.5,393.4,120.4,501,93.8z"/>
	
		<radialGradient id="SVGID_2_" cx="314.9629" cy="159.4773" r="109.9618" gradientTransform="matrix(-1 0 0 1 402 0)" gradientUnits="userSpaceOnUse">
		<stop  offset="0" style="stop-color:#3FC74C"/>
		<stop  offset="1" style="stop-color:#009217"/>
	</radialGradient>
	<path class="st3" d="M0.2,94.9c0,0,95.6,66.7,101.6,129.1c10.8-2.1,22.9-3.4,34.8-5c13.2-1.8,25.3-2.9,37.3-3.9
		c-4.5-17.7-8.8-36-13.2-54.6c-6.5-27.3-12.7-54.5-11.6-54.3c0,0-5.6,95.6-22.9,95.4C126.2,201.6,107.8,121.5,0.2,94.9z"/>
</g>
<g id="Layer_4">
	<path class="st1" d="M111.3,75c0,0-10.9,31.8-11.4,60.9l-17.8-14.1C82.1,121.8,94.2,88.4,111.3,75z"/>
	<path class="st1" d="M387.4,74.6c0,0,10.9,31.8,11.4,60.9l17.8-14.1C416.6,121.4,404.4,88,387.4,74.6z"/>
</g>
<g id="Layer_5">
	<path class="st1" d="M189.2,111.4l11.2,13.6c0,0,6-39.7,17.4-53.9C217.9,71.1,191.8,97.6,189.2,111.4z"/>
	<path class="st1" d="M310.6,113.3l-8.1,11.8c0,0-9.1-38-20.6-52.1C281.9,73,308.1,99.6,310.6,113.3z"/>
	<circle class="st1" cx="122.8" cy="56.9" r="7.6"/>
	<circle class="st1" cx="253.1" cy="9.2" r="7.6"/>
	<circle class="st1" cx="379.1" cy="56.9" r="7.6"/>
</g>
<g id="Layer_6">
	<radialGradient id="SVGID_3_" cx="254.1323" cy="93.924" r="162.6692" gradientUnits="userSpaceOnUse">
		<stop  offset="0" style="stop-color:#00B51E"/>
		<stop  offset="1" style="stop-color:#005A10"/>
	</radialGradient>
	<path class="st4" d="M143.2,79.4c0,0,16.8,15.9,39.5,134.5c21.2-1.4,46.4-1.9,70.5-1.7c22.2,0.1,43.2,1,62.9,2.5
		c0,0,14.6-87.2,39.6-135.3c0,0-31.3,8.5-66.2,85.1c0,0-26.4-89.4-36.4-137.5c0,0-6,66.9-41.7,135.3
		C211.5,162.4,195,109.7,143.2,79.4z"/>
</g>
<g id="Layer_3">
</g>
<g id="Layer_7">
</g>
<g id="Layer_8" class="st0">
	
		<radialGradient id="SVGID_4_" cx="252.8786" cy="268.0729" r="112.0826" gradientTransform="matrix(1 0 0 0.771 0 55.2256)" gradientUnits="userSpaceOnUse">
		<stop  offset="0" style="stop-color:#3FAA4C"/>
		<stop  offset="1" style="stop-color:#007317"/>
	</radialGradient>
	<path class="st5" d="M96.7,250.5c46.7-5.6,101.8-9.6,163.7-9.3c55.7,0.3,105.6,4,148.7,9.1c0,10.8,0,21.6,0,32.4H96.7V250.5z"/>
	<g class="st6">
		<g>
			<path class="st7" d="M116.1,257.8c-3.1,0.3-4.7,0.5-7.8,0.8c0-0.9,0-1.3,0-2.2c7.6-0.9,11.4-1.4,19-2.2c0,1,0,1.5,0,2.4
				c-3.1,0.3-4.7,0.5-7.8,0.8c0,7.6,0,11.5,0,19.1c-1.3,0-2,0-3.4,0C116.1,269,116.1,265.3,116.1,257.8z"/>
			<path class="st7" d="M133.5,253.6c0,3.8,0,5.8,0,9.6c5-0.3,7.5-0.4,12.4-0.7c0-4,0-6.1,0-10.1c1.3-0.1,2-0.2,3.4-0.3
				c0,9.8,0.1,14.7,0.1,24.4c-1.3,0-2,0-3.4,0c0-4.5,0-6.8,0-11.3c-5,0.2-7.5,0.3-12.4,0.6c0,4.3,0,6.5,0,10.8c-1.3,0-2,0-3.3,0
				c0-9,0-13.6-0.1-22.6C131.5,253.8,132.1,253.7,133.5,253.6z"/>
			<path class="st7" d="M168.4,264.3c-4,0.1-6,0.2-10,0.4c0,3.6,0,5.5,0,9.1c4.5,0,6.7-0.1,11.2-0.1c0,1.1,0,1.7,0,2.8
				c-5.8,0-8.7,0-14.5,0c0-10-0.1-15-0.1-24.9c5.6-0.5,8.3-0.7,13.9-1.1c0,1.1,0,1.7,0,2.8c-4.2,0.3-6.3,0.4-10.6,0.7
				c0,3.2,0,4.8,0,8c4-0.2,6-0.3,10-0.4C168.4,262.6,168.4,263.2,168.4,264.3z"/>
			<path class="st7" d="M181.9,249.6c1.3-0.1,2-0.1,3.3-0.2c0,5.2,0,7.8,0,13c0,0,0.1,0,0.1,0c0.7-1.1,1.4-2.1,2-3
				c3.1-4.2,4.7-6.3,7.8-10.6c1.7-0.1,2.5-0.1,4.1-0.2c-3.7,4.9-5.6,7.3-9.3,12.1c4,6.2,6.1,9.3,10.1,15.7c-1.6,0-2.4,0-3.9,0
				c-3.4-5.4-5.1-8.1-8.5-13.3c-1,1.2-1.5,1.8-2.4,3c0,4.1,0,6.2,0,10.3c-1.3,0-2,0-3.3,0C182,265.7,181.9,260.3,181.9,249.6z"/>
			<path class="st7" d="M205.9,248.4c0,9.4,0.1,18.7,0.1,28.1c-1.3,0-2,0-3.3,0c0-11.2-0.1-16.7-0.1-27.9
				C203.9,248.5,204.6,248.4,205.9,248.4z"/>
			<path class="st7" d="M211.8,276.4c0-9.4,0-18.8-0.1-28.3c1.5-0.1,2.2-0.1,3.6-0.1c3.3,5.6,5,8.5,8.3,14.2
				c1.9,3.3,3.4,6.3,4.6,9.3c0,0,0,0,0.1,0c-0.3-3.8-0.4-7.3-0.4-11.8c0-4.8,0-7.2,0-12c1.3,0,1.9,0,3.1-0.1c0,9.6,0,19.2,0,28.8
				c-1.3,0-2,0-3.4,0c-3.3-5.8-4.9-8.7-8.2-14.5c-1.8-3.1-3.5-6.4-4.8-9.4c0,0-0.1,0-0.1,0c0.2,3.6,0.3,7,0.3,11.7
				c0,4.8,0,7.3,0,12.1C213.7,276.4,213.1,276.4,211.8,276.4z"/>
			<path class="st7" d="M256.5,275.1c-1.5,0.6-4.4,1.6-7.9,1.6c-3.9,0-7.1-1.1-9.6-3.8c-2.2-2.4-3.6-6.3-3.6-10.7
				c0-8.6,5.3-15,13.9-15c3,0,5.3,0.7,6.4,1.3c-0.3,1.2-0.5,1.8-0.8,3.1c-1.4-0.7-3.1-1.3-5.7-1.2c-6.3,0-10.4,4.5-10.4,11.7
				c0,7.3,3.9,11.7,9.9,11.7c2.2,0,3.7-0.3,4.4-0.8c0-3.5,0-5.2,0-8.7c-2.1,0-3.1,0-5.2,0c0-1.2,0-1.8,0-3c3.4,0,5.1,0,8.5,0
				C256.5,266.7,256.5,269.5,256.5,275.1z"/>
			<path class="st7" d="M291.7,261.9c0,9.8-5.4,15-12,15c-6.8,0-11.6-5.9-11.6-14.7c0-9.2,5.1-15.1,12-15
				C287.2,247.4,291.8,253.5,291.7,261.9z M271.8,262.1c0,6.2,3,11.7,8.2,11.7c5.3,0,8.3-5.3,8.3-11.8c0-5.7-2.7-11.7-8.2-11.8
				C274.5,250.1,271.8,255.8,271.8,262.1z"/>
			<path class="st7" d="M296.1,248.2c5.6,0.2,8.3,0.3,13.9,0.6c0,1.2,0,1.8,0,3c-4.2-0.2-6.3-0.3-10.6-0.4c0,3.7,0,5.6,0,9.4
				c3.9,0.1,5.8,0.1,9.7,0.2c0,1.2,0,1.8,0,3c-3.9-0.1-5.8-0.1-9.7-0.2c0,5.1,0,7.6,0,12.7c-1.3,0-2,0-3.3,0
				C296.1,267,296.1,257.6,296.1,248.2z"/>
			<path class="st7" d="M326.1,252.6c-3.1-0.2-4.7-0.3-7.8-0.4c0-1.2,0-1.8,0-3c7.6,0.4,11.4,0.7,19.1,1.2c0,1.1,0,1.7,0,2.9
				c-3.1-0.2-4.7-0.3-7.9-0.5c0,9.5-0.1,14.2-0.1,23.7c-1.3,0-2,0-3.4,0C326.1,266.9,326.1,262.1,326.1,252.6z"/>
			<path class="st7" d="M343.6,250.8c0,6.1,0,9.1-0.1,15.2c0,5.7,2.5,8.2,6,8.2c3.8,0,6.3-2.4,6.3-7.8c0-5.8,0-8.8,0.1-14.6
				c1.3,0.1,2,0.2,3.4,0.3c0,5.7,0,8.5-0.1,14.2c0,7.5-4.2,10.6-9.8,10.6c-5.3,0-9.2-3-9.2-11.1c0-6.1,0-9.1,0.1-15.2
				C341.6,250.7,342.2,250.7,343.6,250.8z"/>
			<path class="st7" d="M364.9,253c1.7-0.2,4.1-0.1,6.4,0.1c3.5,0.4,5.8,1.2,7.4,2.6c1.3,1.1,2,2.7,2,4.4c0,2.9-2.1,4.8-4.9,5.4
				c0,0,0,0.1,0,0.1c2,0.7,3.2,2.4,3.8,4.7c0.8,3.1,1.4,5.3,2,6.1c-1.4,0-2.1,0-3.4,0c-0.4-0.6-1-2.6-1.7-5.4
				c-0.8-3.1-2.1-4.4-5.1-4.6c-1.3-0.1-1.9-0.1-3.1-0.1c0,4.1,0,6.1,0,10.2c-1.3,0-2,0-3.3,0C364.9,267.1,364.9,262.4,364.9,253z
				 M368.2,264c1.4,0.1,2,0.1,3.4,0.2c3.5,0.2,5.8-1.4,5.8-4c0-2.9-2.4-4.4-5.9-4.8c-1.6-0.2-2.7-0.1-3.3,0
				C368.2,258.8,368.2,260.6,368.2,264z"/>
			<path class="st7" d="M385.4,254.8c5.5,0.6,8.3,0.9,13.8,1.6c0,0.9,0,1.3,0,2.2c-4.2-0.5-6.3-0.7-10.5-1.1c0,2.8,0,4.3,0,7.1
				c3.9,0.3,5.8,0.4,9.7,0.7c0,0.9,0,1.3,0,2.2c-3.9-0.2-5.8-0.3-9.7-0.5c0,3.9,0,5.8,0,9.7c-1.3,0-2,0-3.3,0
				C385.4,267.8,385.4,263.5,385.4,254.8z"/>
		</g>
	</g>
</g>
<g id="Layer_9">
	
		<radialGradient id="Banner_3_2_1_" cx="254.7988" cy="238.2127" r="136.637" gradientTransform="matrix(2.715746e-009 -1 2.0679 5.615823e-009 -237.7954 493.0114)" gradientUnits="userSpaceOnUse">
		<stop  offset="0" style="stop-color:#00B51E"/>
		<stop  offset="1" style="stop-color:#005A10"/>
	</radialGradient>
	<path id="Banner_3_2" class="st8" d="M441.4,309c0,0-77.4-29.4-193.3-29.4S56.1,309.2,56.1,309.2c-0.3,2.2-16.1-64.6-16.5-65.2
		c68.3-16.2,138.4-24.3,208.6-24.1c115.9,0,210.9,23.9,210.9,23.9L441.4,309z"/>
</g>
<g id="Layer_10">
	<g>
		<g>
			<path class="st7" d="M78.2,252.1c0.6,2.6,0.8,3.8,1.4,6.4c-2.8,0.6-4.2,0.9-7,1.6c2.4,10.2,3.5,15.3,5.9,25.5
				c-4.5,1-6.8,1.6-11.3,2.7c-2.5-10.2-3.8-15.3-6.3-25.4c-2.8,0.7-4.2,1-6.9,1.7c-0.7-2.5-1-3.8-1.6-6.3
				C62.7,255.6,67.8,254.4,78.2,252.1z"/>
			<path class="st7" d="M108.3,246c1.9,10.8,3.9,21.5,5.8,32.3c-4.6,0.8-6.9,1.3-11.4,2.1c-1.1-5.4-1.6-8.1-2.7-13.5
				c-1.4,0.3-2.1,0.4-3.5,0.7c1.1,5.4,1.6,8.1,2.7,13.5c-4.6,0.9-6.8,1.4-11.4,2.4c-2.3-10.7-4.6-21.4-7-32c4.8-1,7.1-1.5,11.9-2.5
				c0.9,4.6,1.4,6.9,2.3,11.5c1.4-0.3,2.1-0.4,3.5-0.7c-0.9-4.6-1.4-6.9-2.3-11.5C101.1,247.3,103.5,246.9,108.3,246z"/>
			<path class="st7" d="M113.1,245.1c8-1.4,12-2,20-3.2c0.4,2.6,0.6,3.9,1,6.5c-3.2,0.5-4.8,0.7-7.9,1.2c0.4,2.5,0.6,3.7,1,6.2
				c2.9-0.5,4.4-0.7,7.4-1.1c0.4,2.5,0.6,3.7,0.9,6.2c-2.9,0.4-4.4,0.7-7.3,1.1c0.5,2.9,0.7,4.3,1.1,7.1c3.4-0.5,5.1-0.8,8.5-1.3
				c0.4,2.6,0.6,3.9,1,6.5c-8,1.2-12,1.8-19.9,3.2C116.9,266.7,115,255.9,113.1,245.1z"/>
			<path class="st7" d="M176.3,236.7c-2.2,6.2-3.3,9.3-5.4,15.5c3.7,6.9,5.5,10.3,9.1,17.3c-4.8,0.4-7.2,0.7-11.9,1.2
				c-2.5-5.4-3.7-8.1-6.3-13.5c0.6,5.6,1,8.4,1.6,14c-4.6,0.5-6.9,0.8-11.5,1.4c-1.4-10.9-2.8-21.7-4.2-32.6c4.8-0.6,7.2-0.9,12-1.5
				c0.6,5.1,0.9,7.6,1.4,12.7c1.5-5.3,2.3-8,3.9-13.3C169.5,237.3,171.8,237.1,176.3,236.7z"/>
			<path class="st7" d="M191.1,235.4c0.8,11,1.6,21.9,2.4,32.9c-4.6,0.3-6.9,0.5-11.6,0.9c-1-10.9-1.9-21.9-2.9-32.8
				C183.8,236,186.2,235.8,191.1,235.4z"/>
			<path class="st7" d="M222.9,233.7c0.4,11,0.7,22,1.1,33c-4.1,0.1-6.1,0.2-10.1,0.4c-2.7-5.9-4.1-8.8-6.8-14.7c0.3,6,0.5,9,0.8,15
				c-3.9,0.2-5.8,0.3-9.7,0.6c-0.7-11-1.5-21.9-2.2-32.9c4-0.3,6.1-0.4,10.1-0.6c3,5.8,4.5,8.7,7.4,14.5c-0.3-5.9-0.4-8.9-0.7-14.8
				C216.8,233.9,218.8,233.8,222.9,233.7z"/>
			<path class="st7" d="M255.4,245.4c-4.8,0-7.1,0-11.9,0c0-1.2,0-1.8,0-3c0-1.9-0.1-3.1-0.4-3.5c-0.2-0.5-0.8-0.7-1.6-0.7
				c-0.7,0-1.2,0.2-1.5,0.6c-0.3,0.4-0.4,1.5-0.4,3.1c0.1,6.3,0.1,9.5,0.2,15.9c0,1.5,0.2,2.5,0.4,2.9c0.3,0.5,0.8,0.7,1.6,0.7
				c0.8,0,1.4-0.3,1.7-0.8c0.3-0.5,0.4-1.6,0.4-3.1c0-1.6,0-2.4,0-3.9c-1,0-1.4,0-2.4,0c0-2,0-3,0-5c5.6-0.1,8.3-0.1,13.9,0
				c-0.1,7.1-0.1,10.7-0.2,17.8c-2.9,0-4.4,0-7.3,0c-0.4-0.9-0.6-1.4-1.1-2.4c-0.8,1-1.8,1.8-3,2.3c-1.2,0.5-2.6,0.8-4.2,0.8
				c-1.9,0-3.8-0.3-5.5-1s-3-1.5-3.9-2.5c-0.9-1-1.5-2.1-1.7-3.2s-0.4-2.8-0.5-5.1c-0.1-3.9-0.2-5.9-0.3-9.8
				c-0.1-3.2,0.1-5.5,0.5-6.9c0.4-1.4,1.8-2.8,4-4c2.2-1.2,5.2-1.9,8.8-1.9c3.5,0,6.5,0.5,8.8,1.5c2.3,1,3.8,2.3,4.5,3.7
				c0.7,1.4,1,3.5,1,6.2C255.4,244.6,255.4,244.8,255.4,245.4z"/>
			<path class="st7" d="M296.9,254.1c-0.2,3.3-0.5,5.7-0.8,7c-0.3,1.4-1,2.6-2.2,3.7c-1.2,1.1-2.7,1.9-4.7,2.4
				c-1.9,0.5-4.1,0.7-6.6,0.6c-2.4-0.1-4.5-0.5-6.4-1.1c-1.9-0.6-3.4-1.6-4.5-2.8c-1.1-1.2-1.8-2.5-2-3.8c-0.2-1.4-0.2-3.8-0.1-7.2
				c0.1-2.3,0.1-3.4,0.2-5.7c0.1-3.3,0.3-5.7,0.5-7.1c0.3-1.4,1-2.6,2.2-3.7c1.2-1.1,2.8-1.9,4.8-2.5c2-0.5,4.3-0.8,6.9-0.7
				c2.5,0.1,4.7,0.5,6.7,1.2c1.9,0.7,3.5,1.6,4.6,2.9c1.1,1.2,1.8,2.5,1.9,3.9c0.1,1.4,0.1,3.8-0.1,7.2
				C297.1,250.7,297.1,251.8,296.9,254.1z M285.6,242.5c0.1-1.5,0-2.5-0.2-3c-0.2-0.4-0.7-0.7-1.4-0.7c-0.6,0-1.1,0.1-1.5,0.5
				c-0.3,0.3-0.6,1.4-0.6,3.1c-0.3,6.2-0.4,9.3-0.7,15.5c-0.1,1.9,0,3.1,0.2,3.6c0.2,0.5,0.7,0.7,1.5,0.7c0.8,0,1.3-0.2,1.6-0.7
				c0.2-0.5,0.4-1.7,0.5-3.7C285.2,251.7,285.4,248.6,285.6,242.5z"/>
			<path class="st7" d="M302.6,235c8.2,0.5,12.3,0.9,20.4,1.6c-0.2,2.6-0.4,4-0.6,6.6c-3.3-0.3-5-0.5-8.3-0.7
				c-0.2,2.5-0.3,3.8-0.5,6.3c2.9,0.2,4.4,0.4,7.3,0.6c-0.2,2.5-0.4,3.8-0.6,6.3c-2.9-0.3-4.4-0.4-7.3-0.6
				c-0.5,5.6-0.7,8.3-1.2,13.9c-4.6-0.4-6.9-0.6-11.6-0.9C301.1,257,301.9,246,302.6,235z"/>
			<path class="st7" d="M360.5,241c-0.4,2.6-0.6,4-0.9,6.6c-2.8-0.4-4.2-0.6-7.1-1c-1.4,10.5-2.1,15.8-3.5,26.4
				c-4.6-0.6-6.9-0.9-11.5-1.4c1.2-10.6,1.9-15.8,3.1-26.4c-2.8-0.3-4.2-0.5-7.1-0.8c0.3-2.6,0.4-4,0.7-6.6
				C344.8,238.8,350,239.5,360.5,241z"/>
			<path class="st7" d="M390.5,245.8c-1.6,8.8-2.4,13.1-4,21.9c-0.5,2.5-0.9,4.2-1.3,5.2c-0.4,1-1.2,1.9-2.5,2.7
				c-1.3,0.9-2.8,1.4-4.7,1.7c-1.8,0.2-4,0.2-6.3-0.2c-2.6-0.4-4.9-1.1-6.8-2.1c-1.9-1-3.3-2-4.2-3.2c-0.8-1.2-1.3-2.4-1.3-3.6
				c0-1.2,0.2-3.6,0.8-7.3c1.1-7.8,1.7-11.7,2.8-19.5c4.8,0.7,7.2,1.1,12,1.8c-1.6,9.9-2.4,14.8-4,24.6c-0.2,1.4-0.3,2.4-0.1,2.8
				c0.1,0.4,0.5,0.7,1.2,0.8c0.7,0.1,1.2,0,1.5-0.4s0.6-1.4,0.8-3.1c1.6-9.7,2.4-14.5,4-24.2C383.3,244.5,385.7,244.9,390.5,245.8z"
				/>
			<path class="st7" d="M395.1,246.6c3.4,0.6,5.1,1,8.4,1.6c5.6,1.1,9.4,2.1,11.3,2.8c1.9,0.7,3.4,1.9,4.3,3.4
				c1,1.5,1.1,3.7,0.5,6.5c-0.6,2.5-1.4,4.1-2.4,4.8c-1.1,0.7-2.9,0.8-5.5,0.5c2.2,0.9,3.6,1.8,4.3,2.7s1,1.6,1,2.2
				c0.1,0.6-0.2,2.3-0.8,4.9c-0.8,3.4-1.1,5.2-1.9,8.6c-4.2-0.9-6.3-1.4-10.6-2.3c0.9-4.3,1.4-6.5,2.3-10.8c0.4-1.7,0.4-2.9,0.1-3.4
				c-0.3-0.5-1.2-0.9-2.8-1.2c-1.2,5.9-1.8,8.8-3,14.7c-4.6-0.9-6.8-1.4-11.4-2.2C391,268.5,393,257.5,395.1,246.6z M405.9,254.5
				c-0.6,2.9-0.9,4.4-1.5,7.3c1.3,0.3,2.3,0.3,2.8,0.2c0.6-0.2,1-0.9,1.3-2.4c0.1-0.7,0.2-1.1,0.4-1.8c0.2-1,0.1-1.8-0.3-2.2
				C408.2,255.2,407.2,254.8,405.9,254.5z"/>
			<path class="st7" d="M426.3,253.1c8,1.8,12,2.8,20,4.9c-0.7,2.6-1,3.9-1.7,6.5c-3.2-0.8-4.9-1.2-8.1-2c-0.6,2.5-0.9,3.7-1.5,6.1
				c2.9,0.7,4.3,1.1,7.2,1.8c-0.6,2.5-0.9,3.7-1.6,6.2c-2.8-0.7-4.3-1.1-7.1-1.8c-1.3,5.4-2,8.2-3.3,13.6c-4.5-1.1-6.8-1.7-11.3-2.7
				C421.3,274.8,423.8,263.9,426.3,253.1z"/>
		</g>
	</g>
</g>
</svg>
