<?xml version="1.0" encoding="utf-8"?>
<!-- Generator: Adobe Illustrator 19.1.1, SVG Export Plug-In . SVG Version: 6.00 Build 0)  -->
<svg version="1.1" id="Layer_1" xmlns="http://www.w3.org/2000/svg" xmlns:xlink="http://www.w3.org/1999/xlink" x="0px" y="0px"
	 viewBox="-108 276 109.9 69" style="enable-background:new -108 276 109.9 69;" xml:space="preserve">
<style type="text/css">
	.st0{fill:#7EC318;}
	.st1{fill:url(#SVGID_1_);}
	.st2{fill:url(#SVGID_2_);}
	.st3{fill:url(#SVGID_3_);}
	.st4{fill:url(#Banner_3_2_1_);}
	.st5{fill:#FFFFFF;}
</style>
<path class="st0" d="M-104.1,301.6c0,0,11.4,9.1,11.1,24.7c1.1-0.2,2.3-0.5,3.5-0.7c1-0.2,1.9-0.3,2.8-0.5c-1-3-2.7-6.4-5-10.3
	C-94.8,309.4-99.1,303.5-104.1,301.6z"/>
<path class="st0" d="M-1.6,301.7c0,0-11.3,9-11,24.6c-1.1-0.2-2.2-0.4-3.4-0.6c-1-0.2-2.1-0.4-3.1-0.5c1-3,2.8-6.4,5-10.3
	C-11,309.5-6.6,303.7-1.6,301.7z"/>
<radialGradient id="SVGID_1_" cx="-17.2185" cy="310.6103" r="24.3044" gradientUnits="userSpaceOnUse">
	<stop  offset="0" style="stop-color:#3FC74C"/>
	<stop  offset="1" style="stop-color:#009217"/>
</radialGradient>
<path class="st1" d="M1.9,296.3c0,0-21.1,14.9-22.4,28.7c-2.3-0.4-4.7-0.7-7.2-1c-3-0.4-5.8-0.7-8.7-0.9c1-3.9,2-8,2.9-12.2
	c1.4-6.1,2.8-12.1,2.6-12.1c0,0,1.2,21,5,21C-25.8,319.7-21.7,302.1,1.9,296.3z"/>
<radialGradient id="SVGID_2_" cx="159.3011" cy="310.7217" r="24.1941" gradientTransform="matrix(-1 0 0 1 70.6667 0)" gradientUnits="userSpaceOnUse">
	<stop  offset="0" style="stop-color:#3FC74C"/>
	<stop  offset="1" style="stop-color:#009217"/>
</radialGradient>
<path class="st2" d="M-107.7,296.5c0,0,21,14.7,22.4,28.4c2.4-0.5,5-0.7,7.6-1.1c2.9-0.4,5.6-0.6,8.2-0.9c-1-3.9-1.9-7.9-2.9-12
	c-1.4-6-2.8-12-2.6-12c0,0-1.2,21-5,21C-80,320-84.1,302.4-107.7,296.5z"/>
<path class="st0" d="M-83.3,292.1c0,0-2.4,7-2.5,13.4l-3.9-3.1C-89.7,302.4-87.1,295.1-83.3,292.1z"/>
<path class="st0" d="M-22.6,292c0,0,2.4,7,2.5,13.4l3.9-3.1C-16.1,302.3-18.8,295-22.6,292z"/>
<path class="st0" d="M-66.1,300.1l2.5,3c0,0,1.3-8.7,3.8-11.9C-59.8,291.3-65.6,297.1-66.1,300.1z"/>
<path class="st0" d="M-39.4,300.6l-2.5,3c0,0-1.3-8.7-3.8-11.9C-45.8,291.7-40,297.5-39.4,300.6z"/>
<circle class="st0" cx="-80.8" cy="288.2" r="1.7"/>
<circle class="st0" cx="-52.1" cy="277.7" r="1.7"/>
<circle class="st0" cx="-24.4" cy="288.2" r="1.7"/>
<radialGradient id="SVGID_3_" cx="-51.8696" cy="296.2984" r="35.791" gradientUnits="userSpaceOnUse">
	<stop  offset="0" style="stop-color:#00B51E"/>
	<stop  offset="1" style="stop-color:#005A10"/>
</radialGradient>
<path class="st3" d="M-76.3,293.1c0,0,4.2,3.6,9.2,29.7c4.7-0.3,9.7-0.5,15-0.5c4.9,0,9.5,0.2,13.8,0.5c0,0,3.2-19.2,8.7-29.8
	c0,0-6.9,1.9-14.6,18.7c0,0-5.8-19.7-8-30.2c0,0-1.3,14.7-9.2,29.8C-61.3,311.4-64.9,299.8-76.3,293.1z"/>
<radialGradient id="Banner_3_2_1_" cx="-51.6379" cy="327.792" r="29.8285" gradientTransform="matrix(2.715745e-009 -1 2.0679 5.615822e-009 -729.4708 276.1541)" gradientUnits="userSpaceOnUse">
	<stop  offset="0" style="stop-color:#00B51E"/>
	<stop  offset="1" style="stop-color:#005A10"/>
</radialGradient>
<path id="Banner_3_2" class="st4" d="M-13.4,343c0,0-13.9-6-39.4-6s-40.8,6-40.8,6c-0.1,0.5-5-13.7-5.1-13.8
	c15-3.6,30.4-5.3,45.9-5.3c25.5,0,45.9,5.3,45.9,5.3C-9.2,333.3-11.9,338.6-13.4,343z"/>
<g>
	<g>
		<path class="st5" d="M-87.9,337.8c-0.5,0.1-0.7,0.2-1.2,0.3c-0.5-2.2-0.8-3.3-1.3-5.5c-0.7,0.2-1,0.3-1.7,0.4
			c-0.1-0.4-0.2-0.6-0.3-1c1.9-0.5,2.8-0.7,4.8-1.1c0.1,0.4,0.1,0.6,0.2,1c-0.7,0.2-1,0.2-1.7,0.4
			C-88.7,334.5-88.5,335.6-87.9,337.8z"/>
		<path class="st5" d="M-80.9,336.3c-0.5,0.1-0.7,0.1-1.1,0.2c-0.2-1.1-0.3-1.7-0.6-2.8c-1,0.2-1.5,0.3-2.5,0.5
			c0.2,1.1,0.4,1.7,0.6,2.8c-0.5,0.1-0.7,0.1-1.1,0.2c-0.6-2.6-0.9-3.9-1.4-6.5c0.5-0.1,0.7-0.2,1.2-0.3c0.2,1.1,0.3,1.6,0.6,2.7
			c1-0.2,1.5-0.3,2.5-0.5c-0.2-1.1-0.3-1.6-0.5-2.7c0.5-0.1,0.7-0.1,1.2-0.2C-81.6,332.4-81.4,333.7-80.9,336.3z"/>
		<path class="st5" d="M-75.4,335.4c-1.7,0.2-2.5,0.4-4.1,0.7c-0.5-2.6-0.7-3.9-1.2-6.6c1.7-0.3,2.6-0.4,4.3-0.7
			c0.1,0.4,0.1,0.6,0.1,1c-1.2,0.2-1.8,0.3-3.1,0.5c0.1,0.7,0.2,1.1,0.3,1.8c1-0.2,1.5-0.2,2.4-0.4c0.1,0.4,0.1,0.6,0.1,1
			c-1,0.1-1.4,0.2-2.4,0.4c0.1,0.7,0.2,1.1,0.3,1.8c1.2-0.2,1.8-0.3,3-0.5C-75.5,334.8-75.4,335-75.4,335.4z"/>
		<path class="st5" d="M-67,334.4c-0.5,0-0.8,0.1-1.3,0.1c-0.7-1.3-1-2-1.7-3.2c-0.4,0.7-0.6,1.1-1.1,1.8c0.1,0.7,0.1,1,0.2,1.7
			c-0.5,0.1-0.7,0.1-1.2,0.1c-0.3-2.7-0.5-4-0.8-6.6c0.5-0.1,0.7-0.1,1.2-0.1c0.2,1.4,0.2,2.1,0.4,3.5c0.1-0.3,0.2-0.4,0.3-0.5
			c0.7-1.3,1.1-2,1.9-3.2c0.5-0.1,0.7-0.1,1.2-0.1c-0.6,0.9-0.8,1.4-1.4,2.4C-68.3,331.8-67.8,332.7-67,334.4z"/>
		<path class="st5" d="M-64.9,334.2c-0.5,0-0.7,0.1-1.2,0.1c-0.2-2.7-0.3-4-0.6-6.7c0.5,0,0.7-0.1,1.2-0.1
			C-65.3,330.2-65.2,331.6-64.9,334.2z"/>
		<path class="st5" d="M-58.7,333.9c-0.4,0-0.7,0-1.1,0c-1.1-1.7-1.6-2.5-2.7-4.2c0-0.1-0.1-0.2-0.2-0.3c0-0.1-0.1-0.2-0.2-0.3
			c0.1,2,0.2,2.9,0.3,4.9c-0.4,0-0.6,0-0.9,0.1c-0.2-2.7-0.3-4-0.5-6.7c0.5,0,0.8-0.1,1.3-0.1c1,1.5,1.5,2.3,2.5,3.8
			c0,0,0.2,0.3,0.4,0.7c-0.1-1.9-0.1-2.8-0.2-4.7c0.4,0,0.6,0,1,0C-58.8,329.9-58.8,331.2-58.7,333.9z"/>
		<path class="st5" d="M-52.4,330.3c0,1.4,0,2.1,0,3.4c-0.2,0-0.3,0-0.5,0c-0.1-0.4-0.2-0.5-0.4-0.9c-0.4,0.7-0.9,1-1.7,1
			c-0.9,0-1.5-0.3-2-1c-0.5-0.7-0.7-1.5-0.7-2.4c0-1,0.2-1.8,0.7-2.5c0.5-0.7,1.2-1,2.1-1c0.7,0,1.2,0.2,1.7,0.6
			c0.4,0.4,0.7,0.9,0.8,1.5c-0.4,0.1-0.6,0.1-1,0.2c-0.2-0.8-0.7-1.2-1.4-1.2c-0.5,0-0.9,0.2-1.1,0.6c-0.3,0.4-0.4,1-0.4,1.8
			c0,1.7,0.6,2.5,1.6,2.5c0.4,0,0.7-0.2,1-0.4c0.3-0.3,0.4-0.7,0.4-1.1c-0.5,0-0.8,0-1.3,0c0-0.4,0-0.6,0-1
			C-53.9,330.3-53.4,330.3-52.4,330.3z"/>
		<path class="st5" d="M-46.3,334c-0.9,0-1.5-0.4-2-1.1c-0.5-0.7-0.7-1.5-0.7-2.5c0-1,0.3-1.8,0.8-2.4c0.5-0.6,1.3-1,2.1-0.9
			c0.9,0,1.5,0.4,2,1.1c0.5,0.7,0.7,1.5,0.6,2.5c-0.1,1-0.4,1.9-0.9,2.5C-44.8,333.8-45.5,334.1-46.3,334z M-46.3,333
			c0.4,0,0.8-0.1,1.1-0.5c0.3-0.3,0.5-1,0.5-1.9c0-0.8,0-1.4-0.3-1.8c-0.2-0.5-0.6-0.7-1.1-0.7c-1,0-1.6,0.8-1.6,2.5
			c0,0.8,0.1,1.4,0.3,1.9C-47.1,332.8-46.7,333-46.3,333z"/>
		<path class="st5" d="M-41.3,334.2c-0.5,0-0.7-0.1-1.2-0.1c0.2-2.7,0.3-4,0.5-6.7c1.7,0.1,2.5,0.2,4.2,0.3c0,0.4-0.1,0.6-0.1,1
			c-1.2-0.1-1.8-0.2-3-0.3c-0.1,0.7-0.1,1.1-0.1,1.8c0.9,0.1,1.4,0.1,2.3,0.2c0,0.4-0.1,0.6-0.1,1c-0.9-0.1-1.4-0.1-2.3-0.2
			C-41.2,332.5-41.2,333.1-41.3,334.2z"/>
		<path class="st5" d="M-33,335.1c-0.5-0.1-0.7-0.1-1.2-0.2c0.3-2.3,0.4-3.4,0.7-5.7c-0.7-0.1-1.1-0.1-1.8-0.2c0-0.4,0.1-0.6,0.1-1
			c1.9,0.2,2.9,0.3,4.8,0.6c-0.1,0.4-0.1,0.6-0.1,1c-0.7-0.1-1.1-0.1-1.8-0.2C-32.5,331.7-32.7,332.8-33,335.1z"/>
		<path class="st5" d="M-25,329.5c-0.3,1.7-0.5,2.6-0.8,4.3c-0.1,0.6-0.2,1-0.4,1.3c-0.2,0.3-0.5,0.5-0.9,0.7s-0.8,0.2-1.4,0.1
			c-0.5-0.1-0.9-0.2-1.2-0.5c-0.3-0.2-0.5-0.6-0.6-0.9c-0.1-0.4-0.1-0.8,0-1.3c0.3-1.8,0.4-2.6,0.6-4.4c0.5,0.1,0.7,0.1,1.2,0.2
			c-0.3,1.7-0.4,2.6-0.7,4.3c-0.1,0.6,0,1,0.2,1.2c0.2,0.2,0.5,0.4,0.8,0.4c0.4,0.1,0.7,0,0.9-0.2c0.2-0.2,0.4-0.5,0.5-1.1
			c0.3-1.7,0.4-2.6,0.7-4.3C-25.6,329.4-25.4,329.4-25,329.5z"/>
		<path class="st5" d="M-20,337.4c-0.5-0.1-0.7-0.2-1.2-0.3c-0.2-1.2-0.2-1.8-0.4-2.9c-0.7-0.1-1-0.2-1.6-0.3
			c-0.2,1.1-0.3,1.6-0.5,2.7c-0.5-0.1-0.7-0.1-1.1-0.2c0.5-2.7,0.7-4,1.2-6.7c1.1,0.2,1.7,0.3,2.9,0.6c0.8,0.2,1.3,0.5,1.6,0.9
			c0.3,0.4,0.4,0.9,0.2,1.5c-0.2,0.9-0.7,1.3-1.5,1.5C-20.3,335.5-20.2,336.1-20,337.4z M-23.1,332.9c0.6,0.1,0.9,0.2,1.5,0.3
			c0.4,0.1,0.8,0.1,1-0.1c0.2-0.1,0.4-0.4,0.5-0.7c0.1-0.3,0-0.5-0.2-0.8c-0.2-0.2-0.4-0.4-0.8-0.4c-0.6-0.1-0.9-0.2-1.6-0.3
			C-22.8,331.7-22.9,332.1-23.1,332.9z"/>
		<path class="st5" d="M-17.7,337.9c-0.5-0.1-0.7-0.2-1.2-0.3c0.6-2.6,0.9-4,1.5-6.6c1.7,0.4,2.5,0.6,4.1,1c-0.1,0.4-0.2,0.6-0.3,1
			c-1.2-0.3-1.7-0.4-2.9-0.7c-0.2,0.7-0.3,1.1-0.4,1.8c0.9,0.2,1.4,0.3,2.3,0.6c-0.1,0.4-0.1,0.6-0.2,1c-0.9-0.2-1.3-0.3-2.2-0.6
			C-17.3,336.2-17.4,336.8-17.7,337.9z"/>
	</g>
</g>
</svg>
